<?xml version="1.0" encoding="iso-8859-1"?>
<!-- Generator: Adobe Illustrator 19.0.0, SVG Export Plug-In . SVG Version: 6.00 Build 0)  -->
<svg version="1.1" id="Capa_1" xmlns="http://www.w3.org/2000/svg" xmlns:xlink="http://www.w3.org/1999/xlink" x="0px" y="0px"
	 viewBox="0 0 512 512" style="enable-background:new 0 0 512 512;" xml:space="preserve">
<path style="fill:#B4EBFF;" d="M512,256c0,141.385-114.615,256-256,256S0,397.385,0,256S114.615,0,256,0S512,114.615,512,256z"/>
<path style="fill:#6CD0F5;" d="M473.963,170H405.37h-50.615C341.083,170,330,158.917,330,145.246
	c0-23.601,19.132-42.732,42.733-42.732h13.573c8.323-17.517,25.012-30.286,44.906-33.139
	c29.337,27.553,52.171,61.941,65.967,100.626h-23.216V170z"/>
<path style="fill:#1E4550;" d="M416.554,403.134c-4.335,0.31-8.376,1.603-11.923,3.644C398.047,399.542,388.554,395,378,395
	c-4.173,0-8.176,0.718-11.903,2.024c-3.212-27.972-10.449-54.716-21.135-79.636c3.902-0.729,7.749-2.114,11.382-4.211
	c9.14-5.277,15.09-13.957,17.175-23.515c4.091-0.006,8.238-0.907,12.147-2.806l59.08-28.707
	c14.583-7.085,20.091-25.055,11.985-39.096l-4.68-8.106c-8.106-14.041-26.423-18.255-39.851-9.169l-54.4,36.812
	c-3.599,2.436-6.452,5.576-8.504,9.116c-9.32-2.974-19.812-2.161-28.953,3.116c-3.648,2.106-6.781,4.758-9.37,7.787
	c-16.359-21.821-35.764-41.225-57.584-57.584c3.029-2.589,5.681-5.722,7.787-9.37c5.277-9.14,6.09-19.632,3.116-28.953
	c3.54-2.051,6.681-4.904,9.117-8.504l36.812-54.4c9.086-13.428,4.872-31.744-9.169-39.851l-8.106-4.68
	c-14.041-8.106-32.011-2.598-39.096,11.985l-28.706,59.081c-1.899,3.909-2.8,8.056-2.806,12.147
	c-9.559,2.085-18.239,8.035-23.516,17.175c-2.098,3.633-3.482,7.48-4.211,11.382c-24.92-10.686-51.664-17.923-79.636-21.135
	c1.306-3.727,2.024-7.73,2.024-11.903c0-10.554-4.542-20.047-11.778-26.632c2.04-3.546,3.334-7.588,3.643-11.923l3.679-51.5
	c-22.425,15.2-42.302,33.868-58.881,55.227c0.612,2.931,1.672,5.689,3.114,8.196C49.542,113.953,45,123.446,45,134
	c0,4.255,0.743,8.335,2.098,12.124c-8.197,0.997-16.284,2.348-24.251,4.023c-6.17,13.569-11.189,27.77-14.936,42.481
	c15.189-4.735,31.002-8.055,47.288-9.801c-0.127,1.041-0.2,2.098-0.2,3.173c0,8.771,4.347,16.521,11,21.23v107.54
	c-5.7,4.034-9.703,10.302-10.734,17.531c-4.502-5.615-11.026-8.958-17.891-9.594l-37.35-64.692
	C0.436,311.161,17.052,360.44,45.158,401.18C53.59,390.708,66.508,384,81,384c25.405,0,46,20.595,46,46
	c0,14.585-6.796,27.576-17.386,36.003c40.972,28.613,90.699,45.556,144.37,45.971l-64.692-37.35
	c-0.636-6.865-3.979-13.389-9.594-17.891c7.23-1.03,13.497-5.034,17.531-10.734h107.54c4.709,6.653,12.46,11,21.23,11
	c1.075,0,2.132-0.073,3.173-0.2c-1.746,16.286-5.066,32.099-9.801,47.288c14.711-3.747,28.913-8.766,42.481-14.936
	c1.675-7.967,3.026-16.054,4.023-24.251c3.79,1.357,7.87,2.1,12.125,2.1c10.554,0,20.047-4.542,26.632-11.778
	c2.507,1.442,5.266,2.502,8.196,3.114c21.359-16.579,40.027-36.457,55.227-58.881L416.554,403.134z M126.625,322.708
	c-7.827,0.725-15.206,4.977-19.655,12.091c-0.377-8.275-4.623-15.536-10.97-20.029V207.23c6.653-4.709,11-12.459,11-21.23
	c0-1.149-0.082-2.278-0.227-3.388c27.029,2.674,52.782,9.679,76.563,20.308c-0.665,0.874-1.289,1.794-1.852,2.77
	c-4.385,7.596-4.496,16.482-1.089,23.886L126.625,322.708z M152.687,359.313c3.202-7.053,2.99-14.93-0.081-21.605l53.77-93.132
	c8.116-0.752,15.756-5.29,20.141-12.886c0.555-0.961,1.033-1.944,1.453-2.941c21.204,15.406,39.876,34.078,55.282,55.282
	c-0.997,0.42-1.98,0.898-2.941,1.453c-7.596,4.385-12.134,12.025-12.886,20.141l-93.132,53.77
	C167.617,356.323,159.74,356.112,152.687,359.313z M326,405c-8.771,0-16.521,4.347-21.23,11H197.23
	c-4.493-6.347-11.754-10.593-20.029-10.97c7.115-4.449,11.366-11.828,12.091-19.655l93.132-53.77
	c7.404,3.407,16.29,3.297,23.886-1.089c0.976-0.564,1.896-1.187,2.77-1.852c10.629,23.781,17.633,49.534,20.308,76.563
	C328.278,405.083,327.149,405,326,405z"/>
<path style="fill:#147D73;" d="M382,416v30H160v-30H382z M349.308,292.99l-15-25.981L150,373.42L163.962,400L349.308,292.99z
	 M219.01,162.692L116.641,340l28.867,10l99.482-172.308L219.01,162.692z M66,340h30V130H66V340z"/>
<path style="fill:#1E4550;" d="M202,431c0,14.359-11.641,26-26,26s-26-11.641-26-26c0-9.288,4.874-17.434,12.201-22.032
	c-8.546-0.405-16.715-5.008-21.311-12.968c-4.354-7.542-4.494-16.356-1.16-23.729c-7.373,3.333-16.187,3.194-23.729-1.16
	c-7.96-4.596-12.563-12.765-12.968-21.311C98.434,357.126,90.288,362,81,362c-14.359,0-26-11.641-26-26s11.641-26,26-26
	c13.956,0,25.341,10.997,25.97,24.798c7.389-11.815,22.865-15.745,35.03-8.721c11.687,6.748,16.152,21.198,10.687,33.236
	c12.038-5.465,26.488-1,33.236,10.687c7.023,12.165,3.094,27.641-8.721,35.03C191.003,405.659,202,417.043,202,431z M81,212
	c14.359,0,26-11.641,26-26s-11.641-26-26-26s-26,11.641-26,26S66.641,212,81,212z M326,405c-14.359,0-26,11.641-26,26
	s11.641,26,26,26s26-11.641,26-26S340.359,405,326,405z M217,196.173c-12.436-7.18-28.337-2.919-35.517,9.517
	s-2.919,28.337,9.517,35.517s28.337,2.919,35.517-9.517C233.696,219.254,229.436,203.353,217,196.173z M315.827,295
	c-7.18-12.436-23.081-16.696-35.517-9.517c-12.436,7.18-16.696,23.081-9.517,35.517s23.081,16.696,35.517,9.517
	C318.746,323.337,323.007,307.436,315.827,295z"/>
<path style="fill:#DC550A;" d="M310.222,99.8l-36.812,54.4c-2.436,3.599-5.576,6.452-9.116,8.504
	c2.974,9.32,2.161,19.813-3.116,28.953c-9.941,17.219-31.958,23.118-49.177,13.177s-23.118-31.958-13.177-49.177
	c5.277-9.14,13.957-15.09,23.516-17.175c0.006-4.091,0.907-8.238,2.806-12.147l28.706-59.081
	c7.086-14.583,25.055-20.091,39.096-11.985l8.106,4.68C315.094,68.055,319.308,86.372,310.222,99.8z M105.222,107.368
	c2.04-3.547,3.334-7.588,3.644-11.923l4.68-65.518C114.701,13.756,101.893,0,85.68,0h-9.36C60.107,0,47.299,13.756,48.454,29.927
	l4.68,65.518c0.31,4.335,1.603,8.376,3.644,11.923C49.542,113.953,45,123.446,45,134c0,19.882,16.118,36,36,36s36-16.118,36-36
	C117,123.446,112.458,113.953,105.222,107.368z M482.073,398.454l-65.518,4.68c-4.335,0.31-8.376,1.603-11.923,3.644
	C398.047,399.542,388.554,395,378,395c-19.882,0-36,16.118-36,36s16.118,36,36,36c10.554,0,20.047-4.542,26.632-11.778
	c3.546,2.04,7.588,3.334,11.923,3.643l65.518,4.68C498.244,464.701,512,451.893,512,435.68v-9.36
	C512,410.107,498.244,397.299,482.073,398.454z M373.519,289.661c4.091-0.006,8.238-0.907,12.147-2.806l59.081-28.706
	c14.583-7.085,20.091-25.055,11.985-39.096l-4.68-8.106c-8.106-14.041-26.423-18.255-39.851-9.169l-54.4,36.812
	c-3.599,2.436-6.452,5.577-8.504,9.117c-9.321-2.974-19.813-2.161-28.953,3.116c-17.219,9.941-23.118,31.958-13.177,49.177
	s31.958,23.118,49.177,13.177C365.484,307.9,371.434,299.22,373.519,289.661z"/>
<path style="fill:#FF640A;" d="M310.222,99.8l-36.812,54.4c-2.436,3.599-5.576,6.452-9.116,8.504
	c2.974,9.32,2.161,19.813-3.116,28.953c-8.987,15.566-27.842,21.878-44.1,15.603c-3.765-9.795-3.243-21.141,2.413-30.936
	c5.277-9.14,13.957-15.09,23.516-17.175c0.006-4.091,0.907-8.238,2.806-12.147l28.706-59.081
	c7.086-14.583,25.055-20.091,39.096-11.985l0.203,0.117C316.157,83.802,315.149,92.518,310.222,99.8z M105.222,107.368
	c2.04-3.547,3.334-7.588,3.644-11.923l4.68-65.518c0.904-12.654-6.743-23.828-17.879-28.09c-11.137,4.262-18.783,15.436-17.88,28.09
	l4.68,65.518c0.31,4.335,1.603,8.376,3.644,11.923c-7.236,6.585-11.778,16.078-11.778,26.632c0,14.657,8.764,27.259,21.333,32.875
	C108.236,161.259,117,148.657,117,134C117,123.446,112.458,113.953,105.222,107.368z M365.629,270.707
	c2.051-3.54,4.904-6.681,8.504-9.117l54.4-36.812c9.516-6.439,21.484-6.192,30.537-0.507c-0.589-1.779-1.363-3.527-2.339-5.218
	l-4.68-8.106c-8.106-14.041-26.423-18.255-39.851-9.169l-54.4,36.812c-3.599,2.436-6.452,5.577-8.504,9.117
	c-9.321-2.974-19.813-2.161-28.953,3.116c-17.219,9.941-23.118,31.958-13.177,49.177c3.105,5.378,7.388,9.652,12.335,12.683
	c-3.259-14.903,3.259-30.826,17.175-38.86C345.817,268.546,356.309,267.733,365.629,270.707z M482.073,398.454l-65.518,4.68
	c-4.335,0.31-8.376,1.603-11.923,3.644C398.047,399.542,388.554,395,378,395c-14.917,0-27.714,9.072-33.176,22
	c5.462,12.928,18.26,22,33.176,22c10.554,0,20.047-4.542,26.632-11.778c3.546,2.04,7.588,3.334,11.923,3.643l65.518,4.68
	c12.904,0.922,24.261-7.051,28.328-18.546C506.334,405.505,494.977,397.532,482.073,398.454z"/>
<g>
</g>
<g>
</g>
<g>
</g>
<g>
</g>
<g>
</g>
<g>
</g>
<g>
</g>
<g>
</g>
<g>
</g>
<g>
</g>
<g>
</g>
<g>
</g>
<g>
</g>
<g>
</g>
<g>
</g>
</svg>
